<?xml version="1.0" encoding="UTF-8" standalone="no"?>
<svg
   xmlns:dc="http://purl.org/dc/elements/1.1/"
   xmlns:cc="http://creativecommons.org/ns#"
   xmlns:rdf="http://www.w3.org/1999/02/22-rdf-syntax-ns#"
   xmlns:svg="http://www.w3.org/2000/svg"
   xmlns="http://www.w3.org/2000/svg"
   xmlns:sodipodi="http://sodipodi.sourceforge.net/DTD/sodipodi-0.dtd"
   xmlns:inkscape="http://www.inkscape.org/namespaces/inkscape"
   id="svg2"
   viewBox="0 0 24 24"
   version="1.1"
   inkscape:version="0.48.4 r9939"
   width="100%"
   height="100%"
   sodipodi:docname="jantonalcor_pencil.svg">
  <sodipodi:namedview
     pagecolor="#ffffff"
     bordercolor="#666666"
     borderopacity="1"
     objecttolerance="10"
     gridtolerance="10"
     guidetolerance="10"
     inkscape:pageopacity="0"
     inkscape:pageshadow="2"
     inkscape:window-width="1219"
     inkscape:window-height="1027"
     id="namedview28"
     showgrid="false"
     inkscape:zoom="12.029309"
     inkscape:cx="16.220455"
     inkscape:cy="13.803684"
     inkscape:window-x="2374"
     inkscape:window-y="24"
     inkscape:window-maximized="0"
     inkscape:current-layer="svg2" />
  <defs
     id="defs4">
    <filter
       id="filter3644"
       height="1.1242"
       width="1.2595"
       y="-0.062103"
       x="-0.12975"
       color-interpolation-filters="sRGB">
      <feGaussianBlur
         id="feGaussianBlur3646"
         stdDeviation="2.0122643" />
    </filter>
    <filter
       id="filter3658"
       height="1.1597"
       width="1.3336"
       y="-0.079847001"
       x="-0.16682"
       color-interpolation-filters="sRGB">
      <feGaussianBlur
         id="feGaussianBlur3660"
         stdDeviation="2.587197" />
    </filter>
    <filter
       id="filter3710"
       height="1.2492"
       width="1.2807"
       y="-0.12457"
       x="-0.14037"
       color-interpolation-filters="sRGB">
      <feGaussianBlur
         id="feGaussianBlur3712"
         stdDeviation="1.4896925" />
    </filter>
    <filter
       id="filter3760"
       height="1.1727999"
       width="1.864"
       y="-0.086400002"
       x="-0.43200001"
       color-interpolation-filters="sRGB">
      <feGaussianBlur
         id="feGaussianBlur3762"
         stdDeviation="1.226911" />
    </filter>
    <filter
       id="filter3938"
       height="2.0064001"
       width="1.8875"
       y="-0.50318003"
       x="-0.44374999"
       color-interpolation-filters="sRGB">
      <feGaussianBlur
         id="feGaussianBlur3940"
         stdDeviation="1.6199079" />
    </filter>
  </defs>
  <g
     id="layer1"
     transform="matrix(0.14543844,0.08396892,-0.08396892,0.14543844,73.018391,-128.81574)">
    <g
       id="g3942">
      <g
         id="g2824"
         style="stroke:#000000;stroke-width:1px">
        <path
           id="path2816"
           d="m 111.02,847.79 -42.217,94.578 -2.3872,38.772 c -0.36254,5.8881 5.6527,8.4129 9.8147,4.2932 l 27.463,-27.184 42.831,-94.679 c 6.1564,-13.609 4.874,-25.182 -8.3711,-30.135 -11.057,-4.1351 -21.197,1.056 -27.133,14.355 z"
           inkscape:connector-curvature="0"
           style="fill:#ffb380" />
        <path
           id="path2822"
           d="m 111.02,847.79 35.505,15.78 c 6.1564,-13.609 4.874,-25.182 -8.3711,-30.135 -11.057,-4.1351 -21.197,1.056 -27.133,14.355 z"
           inkscape:connector-curvature="0"
           style="fill:#a05a2c" />
        <path
           id="path2818"
           d="m 111.02,847.79 -42.215,94.58 c 6.79,-4.0594 9.965,-1.4914 11.195,4.6431 4.9488,-7.6391 15.374,-2.5066 14.69,6.731 4.7431,-2.3285 7.3968,-0.12971 9.0057,4.5068 l 42.831,-94.679 c -7.3297,-10.775 -25.004,-17.412 -35.505,-15.78 z"
           inkscape:connector-curvature="0"
           style="fill:#d45500" />
        <path
           id="path2820"
           d="m 67.157,973.19 -0.73833,7.9507 c -0.54548,5.874 5.6177,8.3772 9.8147,4.2932 l 5.6472,-5.4951 c -4.113,-4.1572 -8.9206,-6.6474 -14.724,-6.7488 z"
           inkscape:connector-curvature="0"
           style="fill:#483e37" />
      </g>
      <path
         id="path2830"
         d="m 117.67,855.77 c -3.9462,-1.7937 -9.6861,7.5337 -21.166,33.722 -11.4799,26.1883 -17.937,42.332 -14.709,43.767 3.2287,1.435 14.709,-22.601 21.883,-38.386 7.1749,-15.785 16.861,-38.386 13.991,-39.103 z"
         inkscape:connector-curvature="0"
         style="opacity:0.87218;fill:#ff9955;filter:url(#filter3658)" />
      <path
         id="path3648"
         d="m 139.67,867.77 c -3.9462,-1.7937 -9.6861,7.5337 -21.166,33.722 -11.4799,26.1883 -17.937,42.332 -14.709,43.767 3.2287,1.435 14.709,-22.601 21.884,-38.386 7.1749,-15.785 16.861,-38.386 13.991,-39.103 z"
         transform="matrix(1.2372,0,0,1.2593,-26.508,-240.27)"
         inkscape:connector-curvature="0"
         style="opacity:0.63910002;fill:#800000;filter:url(#filter3644)" />
      <path
         id="path3664"
         d="m 100.09,956.22 -25.471,28.7 9.6861,-20.09 15.785,-8.6099 z"
         inkscape:connector-curvature="0"
         style="opacity:0.81000001;fill:#ff7f2a;filter:url(#filter3710)" />
      <path
         id="path3714"
         d="m 72.26,943.3 -3.5875,34.081 5.7399,-13.274 1.0762,-13.632 -3.2287,-7.1749 z"
         inkscape:connector-curvature="0"
         style="opacity:0.88999999;fill:#ffffff;filter:url(#filter3760)" />
      <path
         id="path3764"
         style="opacity:0.58999999;color:#000000;fill:#ffffff;filter:url(#filter3938)"
         d="m 129.37,844.61 c 0,2.6619 -1.4764,4.8198 -3.2977,4.8198 -1.8213,0 -3.2977,-2.1579 -3.2977,-4.8198 0,-2.6619 1.4764,-4.8198 3.2977,-4.8198 1.8213,0 3.2977,2.1579 3.2977,4.8198 z"
         transform="matrix(0.57247,0.81992,-0.81992,0.57247,745.1,255.24)"
         inkscape:connector-curvature="0" />
    </g>
  </g>
  <metadata
     id="metadata26">
    <rdf:RDF>
      <cc:Work>
        <dc:format>image/svg+xml</dc:format>
        <dc:type
           rdf:resource="http://purl.org/dc/dcmitype/StillImage" />
        <cc:license
           rdf:resource="http://creativecommons.org/licenses/publicdomain/" />
        <dc:publisher>
          <cc:Agent
             rdf:about="http://openclipart.org/">
            <dc:title>Openclipart</dc:title>
          </cc:Agent>
        </dc:publisher>
        <dc:title>pencil</dc:title>
        <dc:date>2010-01-30T11:25:50</dc:date>
        <dc:description>Un lápiz simple. A simple pencil</dc:description>
        <dc:source>http://openclipart.org/detail/29133/pencil-by-jantonalcor</dc:source>
        <dc:creator>
          <cc:Agent>
            <dc:title>jantonalcor</dc:title>
          </cc:Agent>
        </dc:creator>
        <dc:subject>
          <rdf:Bag>
            <rdf:li>clip art</rdf:li>
            <rdf:li>clipart</rdf:li>
            <rdf:li>colour</rdf:li>
            <rdf:li>icon</rdf:li>
            <rdf:li>image</rdf:li>
            <rdf:li>lapiz</rdf:li>
            <rdf:li>media</rdf:li>
            <rdf:li>pencil</rdf:li>
            <rdf:li>png</rdf:li>
            <rdf:li>public domain</rdf:li>
            <rdf:li>svg</rdf:li>
            <rdf:li>symbol</rdf:li>
            <rdf:li>unchecked</rdf:li>
          </rdf:Bag>
        </dc:subject>
      </cc:Work>
      <cc:License
         rdf:about="http://creativecommons.org/licenses/publicdomain/">
        <cc:permits
           rdf:resource="http://creativecommons.org/ns#Reproduction" />
        <cc:permits
           rdf:resource="http://creativecommons.org/ns#Distribution" />
        <cc:permits
           rdf:resource="http://creativecommons.org/ns#DerivativeWorks" />
      </cc:License>
    </rdf:RDF>
  </metadata>
</svg>
